{"title":"Do.You.Believe.2015.1080p.BluRay.REMUX.AVC.DD5.1-RARBG","uid":12211793,"size":16130745397,"categoryP":"video","categoryS":"hd___movies","magnet":"?xt=urn:btih:c381e3dceb040ddd0b9d85c5851f12a03a6cdca7&amp;dn=Do.You.Believe.2015.1080p.BluRay.REMUX.AVC.DD5.1-RARBG&amp;tr=udp%3A%2F%2Ftracker.openbittorrent.com%3A80&amp;tr=udp%3A%2F%2Fopen.demonii.com%3A1337&amp;tr=udp%3A%2F%2Ftracker.coppersurfer.tk%3A6969&amp;tr=udp%3A%2F%2Fexodus.desync.com%3A6969","seeders":0,"leechers":1,"uploader":"vickey1992","files":4,"time":1439109489,"description":"Video\nID                                       : 1\nFormat                                   : AVC\nFormat/Info                              : Advanced Video Codec\nFormat profile                           : &lt;a class=&quot;__cf_email__&quot; href=&quot;/cdn-cgi/l/email-protection&quot; data-cfemail=&quot;4800212f2008047c6679&quot;&gt;[email&amp;#160;protected]&lt;/a&gt;&lt;script data-cfhash='f9e31' type=&quot;text/javascript&quot;&gt;\n/* &lt;![CDATA[ */!function(){try{var t=&quot;currentScript&quot;in document?document.currentScript:function(){for(var t=document.getElementsByTagName(&quot;script&quot;),e=t.length;e--;)if(t[e].getAttribute(&quot;data-cfhash&quot;))return t[e]}();if(t&amp;&amp;t.previousSibling){var e,r,n,i,c=t.previousSibling,a=c.getAttribute(&quot;data-cfemail&quot;);if(a){for(e=&quot;&quot;,r=parseInt(a.substr(0,2),16),n=2;a.length-n;n+=2)i=parseInt(a.substr(n,2),16)^r,e+=String.fromCharCode(i);e=document.createTextNode(e),c.parentNode.replaceChild(e,c)}t.parentNode.removeChild(t);}}catch(u){}}()/* ]]&gt; */&lt;/script&gt;\nFormat settings, CABAC                   : Yes\nFormat settings, ReFrames                : 4 frames\nCodec ID                                 : V_MPEG4/ISO/AVC\nDuration                                 : 2h 0mn\nBit rate mode                            : Constant\nNominal bit rate                         : 16.0 Mbps\nWidth                                    : 1 920 pixels\nHeight                                   : 1 080 pixels\nDisplay aspect ratio                     : 16:9\nFrame rate mode                          : Constant\nFrame rate                               : 23.976 fps\nStandard                                 : NTSC\nColor space                              : YUV\nChroma subsampling                       : 4:2:0\nBit depth                                : 8 bits\nScan type                                : Progressive\nBits/(Pixel*Frame)                       : 0.322\nTitle                                    : Do.You.Believe.2015.1080p.BluRay.REMUX.AVC.DD5.1-RARBG\nLanguage                                 : English\nDefault                                  : No\nForced                                   : No\nColor range                              : Limited\nColor primaries                          : BT.709\nTransfer characteristics                 : BT.709\nMatrix coefficients                      : BT.709\n\nAudio #1\nID                                       : 2\nFormat                                   : AC-3\nFormat/Info                              : Audio Coding 3\nMode extension                           : CM (complete main)\nFormat settings, Endianness              : Big\nCodec ID                                 : A_AC3\nDuration                                 : 2h 0mn\nBit rate mode                            : Constant\nBit rate                                 : 448 Kbps\nChannel(s)                               : 6 channels\nChannel positions                        : Front: L C R, Side: L R, LFE\nSampling rate                            : 48.0 KHz\nCompression mode                         : Lossy\nStream size                              : 385 MiB (3%)\nTitle                                    : Do.You.Believe.2015.1080p.BluRay.REMUX.AVC.DD5.1-RARBG\nLanguage                                 : English\nDefault                                  : Yes\nForced                                   : No\n\nAudio #2\nID                                       : 3\nFormat                                   : AC-3\nFormat/Info                              : Audio Coding 3\nMode extension                           : CM (complete main)\nFormat settings, Endianness              : Big\nCodec ID                                 : A_AC3\nDuration                                 : 2h 0mn\nBit rate mode                            : Constant\nBit rate                                 : 448 Kbps\nChannel(s)                               : 6 channels\nChannel positions                        : Front: L C R, Side: L R, LFE\nSampling rate                            : 48.0 KHz\nCompression mode                         : Lossy\nStream size                              : 385 MiB (3%)\nTitle                                    : Do.You.Believe.2015.1080p.BluRay.REMUX.AVC.DD5.1-RARBG\nLanguage                                 : Spanish\nDefault                                  : No\nForced                                   : No\n\nAudio #3\nID                                       : 4\nFormat                                   : PCM\nCodec ID                                 : A_PCM/INT/LIT\nDuration                                 : 2h 0mn\nBit rate mode                            : Constant\nChannel(s)                               : 2 channels\nSampling rate                            : 48.0 KHz\nBit depth                                : 16 bits\nTitle                                    : Do.You.Believe.2015.1080p.BluRay.REMUX.AVC.DD5.1-RARBG\nLanguage                                 : English\nDefault                                  : No\nForced                                   : No\n\nText #1\nID                                       : 5\nFormat                                   : PGS\nMuxing mode                              : zlib\nCodec ID                                 : S_HDMV/PGS\nCodec ID/Info                            : Picture based subtitle format used on BDs/HD-DVDs\nLanguage                                 : English\nDefault                                  : No\nForced                                   : No\n\nText #2\nID                                       : 6\nFormat                                   : PGS\nMuxing mode                              : zlib\nCodec ID                                 : S_HDMV/PGS\nCodec ID/Info                            : Picture based subtitle format used on BDs/HD-DVDs\nLanguage                                 : Spanish\nDefault                                  : No\nForced                                   : No\n\nMenu\n00:00:00.000                             : en:Chapter 01\n00:05:16.441                             : en:Chapter 02\n00:09:31.529                             : en:Chapter 03\n00:14:06.512                             : en:Chapter 04\n00:18:50.462                             : en:Chapter 05\n00:24:47.110                             : en:Chapter 06\n00:28:54.441                             : en:Chapter 07\n00:34:18.014                             : en:Chapter 08\n00:40:15.871                             : en:Chapter 09\n00:44:27.790                             : en:Chapter 10\n00:51:09.733                             : en:Chapter 11\n00:56:46.820                             : en:Chapter 12\n01:01:52.458                             : en:Chapter 13\n01:07:11.610                             : en:Chapter 14\n01:12:55.412                             : en:Chapter 15\n01:19:45.238                             : en:Chapter 16\n01:24:28.438                             : en:Chapter 17\n01:32:46.519                             : en:Chapter 18\n01:42:14.169                             : en:Chapter 19\n01:52:16.771                             : en:Chapter 20","torrent":{"xt":"urn:btih:c381e3dceb040ddd0b9d85c5851f12a03a6cdca7","amp;dn":"Do.You.Believe.2015.1080p.BluRay.REMUX.AVC.DD5.1-RARBG","amp;tr":["udp%3A%2F%2Ftracker.openbittorrent.com%3A80","udp%3A%2F%2Fopen.demonii.com%3A1337","udp%3A%2F%2Ftracker.coppersurfer.tk%3A6969","udp%3A%2F%2Fexodus.desync.com%3A6969"],"infoHash":"c381e3dceb040ddd0b9d85c5851f12a03a6cdca7","infoHashBuffer":{"type":"Buffer","data":[195,129,227,220,235,4,13,221,11,157,133,197,133,31,18,160,58,108,220,167]},"announce":[],"urlList":[]}}